<svg width="28" height="30" viewBox="0 0 28 30" fill="none" xmlns="http://www.w3.org/2000/svg">
<path d="M2.71152 28.673C1.95383 28.673 1.31249 28.4105 0.787493 27.8855C0.262498 27.3605 0 26.7191 0 25.9615V5.88461C0 5.12692 0.262498 4.48558 0.787493 3.96058C1.31249 3.43559 1.95383 3.17309 2.71152 3.17309H4.78848V0H7.09612V3.17309H18.4615V0H20.7114V3.17309H22.7884C23.5461 3.17309 24.1874 3.43559 24.7124 3.96058C25.2374 4.48558 25.4999 5.12692 25.4999 5.88461V15.6058L23.2499 17.8557V11.8846H2.24995V25.9615C2.24995 26.0769 2.29803 26.1826 2.39419 26.2788C2.49035 26.375 2.59612 26.423 2.71152 26.423H11.824L14.0884 28.673H2.71152ZM2.24995 9.63466H23.2499V5.88461C23.2499 5.76921 23.2019 5.66344 23.1057 5.56728C23.0095 5.47112 22.9038 5.42303 22.7884 5.42303H2.71152C2.59612 5.42303 2.49035 5.47112 2.39419 5.56728C2.29803 5.66344 2.24995 5.76921 2.24995 5.88461V9.63466ZM2.24995 9.63466V5.88461C2.24995 5.74998 2.24995 5.6394 2.24995 5.55285C2.24995 5.46631 2.24995 5.42303 2.24995 5.42303C2.24995 5.42303 2.24995 5.46631 2.24995 5.55285C2.24995 5.6394 2.24995 5.74998 2.24995 5.88461V9.63466ZM19.5172 29.423L14.7981 24.7182L16.3788 23.1375L19.4942 26.2529L25.7249 20.0221L27.3057 21.6259L19.5172 29.423Z" fill="#25D1F4"/>
</svg>
