<svg width="17" height="26" viewBox="0 0 17 26" fill="none" xmlns="http://www.w3.org/2000/svg">
<path d="M7.32686 23.2499H9.17303V20.3019L14.2499 15.2249V8.71152C14.2499 8.59612 14.2019 8.49035 14.1057 8.39419C14.0095 8.29803 13.9038 8.24994 13.7884 8.24994H2.71152C2.59612 8.24994 2.49035 8.29803 2.39419 8.39419C2.29803 8.49035 2.24995 8.59612 2.24995 8.71152V15.2249L7.32686 20.3019V23.2499ZM5.07691 25.4999V21.2595L0 16.1826V8.71152C0 7.96345 0.264902 7.32451 0.794705 6.79471C1.32451 6.2649 1.96345 6 2.71152 6H4.38461L3.25963 7.12497V0H5.50958V6H10.9903V0H13.2403V7.12497L12.1153 6H13.7884C14.5364 6 15.1754 6.2649 15.7052 6.79471C16.235 7.32451 16.4999 7.96345 16.4999 8.71152V16.1826L11.423 21.2595V25.4999H5.07691Z" fill="#25D1F4"/>
</svg>
